<svg width="24" height="24" viewBox="0 0 24 24" fill="none" xmlns="http://www.w3.org/2000/svg">
<path d="M22.5406 6.42C22.4218 5.94541 22.1799 5.51057 21.8392 5.15941C21.4986 4.80824 21.0713 4.55318 20.6006 4.42C18.8806 4 12.0006 4 12.0006 4C12.0006 4 5.12057 4 3.40057 4.46C2.92982 4.59318 2.50255 4.84824 2.16192 5.19941C1.82129 5.55057 1.57936 5.98541 1.46057 6.46C1.14579 8.20556 0.991808 9.97631 1.00057 11.75C0.989351 13.537 1.14334 15.3213 1.46057 17.08C1.57936 17.5546 1.82129 17.9894 2.16192 18.3406C2.50255 18.6918 2.92982 18.9468 3.40057 19.08C5.12057 19.54 12.0006 19.54 12.0006 19.54C12.0006 19.54 18.8806 19.54 20.6006 19.08C21.0713 18.9468 21.4986 18.6918 21.8392 18.3406C22.1799 17.9894 22.4218 17.5546 22.5406 17.08C22.8578 15.3213 23.0118 13.537 23.0006 11.75C23.0118 9.96295 22.8578 8.1787 22.5406 6.42Z" stroke="#8C8C8C" stroke-width="1.5"/>
<path d="M9.75 15.02L15.5 11.75L9.75 8.47998V15.02Z" stroke="#8C8C8C" stroke-width="1.5"/>
</svg>
