<svg xmlns="http://www.w3.org/2000/svg" viewBox="0 0 220 72" role="img" aria-labelledby="title">
  <title id="title">BCA</title>
  <rect width="220" height="72" rx="12" fill="#ffffff"/>
  <g transform="translate(18 13)" fill="none" stroke="#0876c9" stroke-width="3.2">
    <path d="M24 2c12 0 22 10 22 22S36 46 24 46 2 36 2 24 12 2 24 2Z"/>
    <path d="M7 17c7-7 17-9 25-5 7 3 12 10 12 18"/>
    <path d="M5 29c8 6 18 8 27 4 7-3 11-9 12-16"/>
    <path d="M13 8c-2 10 1 20 9 27 5 5 12 7 19 6"/>
  </g>
  <text x="78" y="47" font-family="Arial, Helvetica, sans-serif" font-size="39" font-weight="700" fill="#0876c9">BCA</text>
</svg>
