<svg width="28" height="28" viewBox="0 0 28 28" fill="none" xmlns="http://www.w3.org/2000/svg">
<path d="M14 4.5C15.933 4.5 17.5 6.067 17.5 8C17.5 9.933 15.933 11.5 14 11.5C12.067 11.5 10.5 9.933 10.5 8C10.5 6.067 12.067 4.5 14 4.5Z" fill="#E5C483"/>
<path d="M7 10C8.38071 10 9.5 11.1193 9.5 12.5C9.5 13.8807 8.38071 15 7 15C5.61929 15 4.5 13.8807 4.5 12.5C4.5 11.1193 5.61929 10 7 10Z" fill="#E5C483"/>
<path d="M21 10C22.3807 10 23.5 11.1193 23.5 12.5C23.5 13.8807 22.3807 15 21 15C19.6193 15 18.5 13.8807 18.5 12.5C18.5 11.1193 19.6193 10 21 10Z" fill="#E5C483"/>
<path d="M6 19C6 15.6863 8.68629 13 12 13H16C19.3137 13 22 15.6863 22 19V24H6V19Z" fill="#E5C483"/>
<path d="M9.5 18H18.5" stroke="#111111" stroke-width="1.6" stroke-linecap="round"/>
<path d="M14 11.5V13" stroke="#111111" stroke-width="1.6" stroke-linecap="round"/>
</svg>