<svg width="28" height="28" viewBox="0 0 28 28" fill="none" xmlns="http://www.w3.org/2000/svg">
<path d="M6 10.5C7.38071 10.5 8.5 9.38071 8.5 8C8.5 6.61929 7.38071 5.5 6 5.5C4.61929 5.5 3.5 6.61929 3.5 8C3.5 9.38071 4.61929 10.5 6 10.5Z" fill="#E5C483"/>
<path d="M22 10.5C23.3807 10.5 24.5 9.38071 24.5 8C24.5 6.61929 23.3807 5.5 22 5.5C20.6193 5.5 19.5 6.61929 19.5 8C19.5 9.38071 20.6193 10.5 22 10.5Z" fill="#E5C483"/>
<path d="M14 7.5C15.6569 7.5 17 6.15685 17 4.5C17 2.84315 15.6569 1.5 14 1.5C12.3431 1.5 11 2.84315 11 4.5C11 6.15685 12.3431 7.5 14 7.5Z" fill="#E5C483"/>
<path d="M8.5 13.5C8.5 12.6716 9.17157 12 10 12H18C18.8284 12 19.5 12.6716 19.5 13.5V20.5H8.5V13.5Z" fill="#E5C483"/>
<path d="M14 12.5L10.5 8.8" stroke="#E5C483" stroke-width="1.8" stroke-linecap="round"/>
<path d="M14 12.5L17.5 8.8" stroke="#E5C483" stroke-width="1.8" stroke-linecap="round"/>
<path d="M6 10.5V15.5" stroke="#E5C483" stroke-width="1.8" stroke-linecap="round"/>
<path d="M22 10.5V15.5" stroke="#E5C483" stroke-width="1.8" stroke-linecap="round"/>
<path d="M14 7.5V12.5" stroke="#E5C483" stroke-width="1.8" stroke-linecap="round"/>
</svg>