<svg width="24" height="24" viewBox="0 0 24 24" fill="none" xmlns="http://www.w3.org/2000/svg">
<path d="M12 21C14.5 21 16.6125 20.125 18.3375 18.375C20.0625 16.625 20.95 14.5 21 12V3H12C9.5 3.05 7.375 3.9375 5.625 5.6625C3.875 7.3875 3 9.5 3 12C3 14.5 3.875 16.625 5.625 18.375C7.375 20.125 9.5 21 12 21V21M10.2375 18.4875L17.1375 12.3375C17.3625 12.1375 17.425 11.9 17.325 11.625C17.225 11.35 17.025 11.1875 16.725 11.1375L11.325 10.6125L14.55 6.15C14.625 6.025 14.6687 5.90625 14.6812 5.79375C14.6937 5.68125 14.65 5.575 14.55 5.475C14.45 5.35 14.325 5.29375 14.175 5.30625C14.025 5.31875 13.8875 5.375 13.7625 5.475L6.9 11.625C6.675 11.825 6.6125 12.0625 6.7125 12.3375C6.8125 12.6125 7.0125 12.775 7.3125 12.825L12.7125 13.35L9.45 17.8125C9.375 17.9375 9.3375 18.0563 9.3375 18.1688C9.3375 18.2813 9.3875 18.3875 9.4875 18.4875C9.5875 18.5875 9.70625 18.6375 9.84375 18.6375C9.98125 18.6375 10.1125 18.5875 10.2375 18.4875V18.4875M12 24C10.6 24 9.28125 23.7812 8.04375 23.3438C6.80625 22.9062 5.675 22.2875 4.65 21.4875L2.5875 23.55C2.4375 23.7 2.26875 23.8125 2.08125 23.8875C1.89375 23.9625 1.7 24 1.5 24C1.075 24 0.71875 23.8563 0.43125 23.5688C0.14375 23.2813 0 22.925 0 22.5C0 22.3 0.0375 22.1063 0.1125 21.9188C0.1875 21.7313 0.3 21.5625 0.45 21.4125L2.5125 19.35C1.7125 18.325 1.09375 17.1938 0.65625 15.9563C0.21875 14.7188 0 13.4 0 12C0 8.65 1.1625 5.8125 3.4875 3.4875C5.8125 1.1625 8.65 0 12 0H24V12C24 15.35 22.8375 18.1875 20.5125 20.5125C18.1875 22.8375 15.35 24 12 24V24M12 12V12V12V12V12V12V12V12V12V12" fill="#E5C483"/>
</svg>