<svg width="28" height="28" viewBox="0 0 28 28" fill="none" xmlns="http://www.w3.org/2000/svg">
<path d="M7 6.5C8.933 6.5 10.5 8.067 10.5 10C10.5 11.933 8.933 13.5 7 13.5C5.067 13.5 3.5 11.933 3.5 10C3.5 8.067 5.067 6.5 7 6.5Z" fill="#E5C483"/>
<path d="M21 6.5C22.933 6.5 24.5 8.067 24.5 10C24.5 11.933 22.933 13.5 21 13.5C19.067 13.5 17.5 11.933 17.5 10C17.5 8.067 19.067 6.5 21 6.5Z" fill="#E5C483"/>
<path d="M14 14C15.933 14 17.5 15.567 17.5 17.5C17.5 19.433 15.933 21 14 21C12.067 21 10.5 19.433 10.5 17.5C10.5 15.567 12.067 14 14 14Z" fill="#E5C483"/>
<path d="M9.2 12.6L12.2 15.6" stroke="#E5C483" stroke-width="1.8" stroke-linecap="round"/>
<path d="M18.8 12.6L15.8 15.6" stroke="#E5C483" stroke-width="1.8" stroke-linecap="round"/>
<path d="M11.2 18.2H16.8" stroke="#E5C483" stroke-width="1.8" stroke-linecap="round"/>
<path d="M14 10V14" stroke="#E5C483" stroke-width="1.8" stroke-linecap="round"/>
</svg>